PathFileType	4	(X/Y/Z)	C:/Users/beibeiliu/ov580/test_trc/User1\sequence.1_training_dense_left.trc
DataRate	CameraRate	NumFrames	NumMarkers	Units	OrigDataRate	OrigDataStartFrame	OrigNumFrames
120	120	14	19	mm	120	74	294
Frame#	Time	ThumbCMC			ThumbMCP			ThumbIP			ThumbTip			IndexMCP			IndexPIP			IndexTip			MiddleMCP			MiddlePIP			MiddleTip			RingMCP			RingPIP			RingTip			PinkyMCP			PinkyPIP			PinkyTip			BackHand1			BackHand2			BackHand3	
		X0	Y0	Z0	X1	Y1	Z1	X2	Y2	Z2	X3	Y3	Z3	X4	Y4	Z4	X5	Y5	Z5	X6	Y6	Z6	X7	Y7	Z7	X8	Y8	Z8	X9	Y9	Z9	X10	Y10	Z10	X11	Y11	Z11	X12	Y12	Z12	X13	Y13	Z13	X14	Y14	Z14	X15	Y15	Z15	X16	Y16	Z16	X17	Y17	Z17	X18	Y18	Z18	
73	0.608333	-138.707	42.2831	90.1076	-125.082	24.8611	64.9329	-110.939	13.671	40.7251	-102.87	-0.398874	25.0831	-129.64	70.035	5.62794	-128.262	61.4591	-25.8502	-142.231	39.26	-47.0656	-152.651	82.0106	-5.94426	-156.395	72.0227	-35.1234	-165.587	44.6456	-60.4721	-177.264	85.9458	-1.86812	-178.225	74.0967	-34.5044	-184.573	53.8926	-55.2678	-207.396	83.4775	8.95365	-215.943	79.1394	-11.9294	-211.103	69.0035	-38.7998	-181.262	91.3635	56.5315	-191.596	90.7758	88.3177	-154.007	79.4647	75.5995	
74	0.616667	-140.535	42.2941	88.0291	-123.274	20.1396	67.4095	-112.525	9.89881	41.0754	-103.236	-4.72204	26.9794	-132.679	64.2451	3.29982	-134.083	54.4625	-26.3429	-141.722	30.2607	-45.1267	-154.805	75.7587	-9.90274	-159.097	62.1461	-36.5861	-164.472	36.6899	-57.2515	-178.462	79.1165	-2.16288	-183.553	66.5501	-36.0012	-187.592	47.3102	-49.9711	-211.112	78.2192	10.4716	-213.897	72.5245	-9.44822	-212.373	60.6987	-36.1843	-187.64	87.7736	57.8396	-187.824	88.4569	90.8462	-153.636	76.9316	75.9663	
75	0.625	-137.268	39.8775	87.2782	-125.819	18.2192	65.8215	-113.217	6.88523	44.9588	-105.711	-8.27642	27.7543	-136.073	61.7611	1.24221	-137.951	46.8475	-28.7606	-143.606	22.8666	-44.0622	-156.643	71.2826	-9.59972	-161.905	56.4024	-37.6684	-170.261	26.4961	-57.7104	-184.099	74.4614	-5.96968	-182.933	60.7856	-34.083	-191.943	36.3181	-53.3184	-210.145	73.1289	11.7291	-218.601	67.6061	-10.6295	-213.859	54.0315	-36.5235	-182.902	85.383	52.3284	-188.733	86.2694	90.927	-156.288	77.1237	76.7039	
76	0.633333	-136.49	38.5245	84.3632	-124.847	16.0769	66.9049	-116.825	5.87501	41.83	-105.136	-10.7408	27.0323	-132.491	56.251	2.6345	-134.591	42.5315	-28.074	-148.198	19.0462	-42.7224	-158.411	67.3512	-12.8892	-164.215	51.9559	-39.3873	-169.908	24.1256	-56.1014	-181.944	70.5937	-6.02527	-189.085	55.9725	-36.4806	-194.725	34.186	-50.1418	-214.07	70.4398	8.63735	-219.467	63.0203	-11.4911	-217.54	46.6539	-39.0663	-186.182	82.6503	55.2268	-192.568	87.4337	84.7781	-156.029	76.4601	70.7946	
77	0.641667	-141.139	39.6329	85.7418	-127.128	17.2336	64.7791	-114.67	3.13849	43.3915	-106.475	-10.7036	28.2557	-136.766	54.647	0.335222	-137.489	38.8854	-28.8979	-149.709	12.4727	-43.5144	-158.305	63.8819	-11.962	-162.107	47.5821	-37.4428	-173.455	18.7551	-54.4988	-185.588	66.0111	-8.51765	-191.121	49.64	-36.5745	-195.636	25.7046	-51.7501	-212.897	65.9113	6.12394	-218.829	55.5902	-14.523	-215.649	40.1859	-33.9552	-187.828	84.1088	51.6884	-193.644	84.389	85.5338	-157.804	75.7619	69.9485	
78	0.65	-137.435	39.8351	87.4013	-125.09	18.5113	63.8591	-115.182	5.39273	44.0526	-107.791	-8.40973	26.3961	-137.662	51.5167	-1.97252	-137.35	37.2598	-26.9976	-147.952	11.1724	-40.5182	-164.851	62.2006	-10.5259	-164.899	39.903	-40.4643	-170.326	11.8866	-53.5633	-187.117	63.0665	-6.15433	-192.822	45.1715	-35.6421	-194.989	22.2882	-47.7479	-213.864	60.7942	10.5101	-219.437	47.864	-15.2528	-217.019	32.0993	-34.6471	-188.558	78.406	53.529	-194.259	82.2051	83.2747	-157.224	72.8076	70.9452	
79	0.658333	-138.81	41.9668	84.8331	-123.494	19.4308	66.4681	-109.806	5.41078	45.8256	-102.71	-9.15034	28.8353	-140.61	50.4146	-0.958034	-141.424	30.8376	-29.4485	-145.897	7.08753	-39.929	-166.363	56.7289	-13.0043	-164.361	37.3005	-37.1825	-172.262	6.19986	-50.5794	-188.086	55.4982	-11.391	-193.45	37.0861	-34.0778	-192.811	12.6954	-45.9182	-215.725	54.2412	8.32645	-221.709	42.6727	-12	-216.769	23.414	-31.4329	-193.399	75.7511	51.9221	-194.85	82.4478	81.3429	-159.517	75.1318	68.7284	
80	0.666667	-139.916	44.4954	83.8055	-120.839	21.2068	70.5752	-110.768	8.85634	46.1362	-102.111	-7.61384	32.2605	-140.233	46.8903	-5.51219	-141.349	26.4129	-29.3552	-142.585	-1.64814	-38.1541	-167.534	51.1607	-13.9062	-167.061	29.0031	-39.242	-168.38	-1.7192	-48.2194	-188.829	49.3195	-8.15169	-189.625	30.368	-31.6585	-189.255	0.237847	-43.7687	-220.228	44.9433	6.35209	-217.888	32.4853	-10.5972	-216.232	12.3164	-29.886	-196.27	74.2622	44.5367	-196.232	78.4028	80.8361	-161.806	74.3223	67.9091	
81	0.675	-135.929	46.1903	85.1043	-119.538	22.8752	68.4486	-106.631	9.77138	47.9803	-97.9885	-7.17925	34.8956	-140.913	43.1938	-3.1968	-142.267	23.9391	-26.6749	-145.22	-7.40195	-35.9798	-165.488	44.6503	-14.6102	-163.181	22.2125	-37.9344	-169.827	-10.6567	-46.9445	-192.649	41.534	-8.23543	-193.57	21.2575	-31.17	-187.949	-10.2325	-41.4126	-215.669	36.0729	5.60711	-217.481	21.9476	-11.3568	-215.375	-1.27735	-28.0095	-199.5	68.6479	45.8704	-203.73	75.102	77.447	-164.992	72.4513	64.7099	
82	0.683333	-137.102	48.1739	83.2014	-121.595	25.3724	70.9952	-106.476	9.58142	47.7637	-97.1251	-5.19322	33.5712	-140.513	40.3481	-4.74356	-139.621	19.3885	-25.6966	-144.851	-10.6006	-33.5498	-168.374	40.9656	-12.2891	-164.734	13.1002	-37.2986	-167.076	-19.3949	-44.0279	-192.669	35.0827	-9.35338	-193.559	12.181	-29.6543	-185.049	-16.3873	-36.5372	-216.886	31.0555	11.1198	-218.995	13.4503	-9.06664	-211.849	-9.12466	-22.3025	-196.924	64.9526	42.54	-202.006	74.2589	76.7954	-168.226	73.3404	64.6824	
83	0.691667	-139.935	48.4925	85.0715	-117.39	25.4449	70.8761	-106.583	11.2123	49.6008	-93.1971	-5.49911	35.8102	-140.715	36.9505	-3.24187	-140.231	13.8092	-25.0043	-140.918	-15.104	-31.7403	-170.594	33.6107	-16.1999	-167.625	7.66736	-34.4602	-166.068	-23.8406	-39.6154	-192.257	29.5759	-7.62565	-191.254	4.5903	-27.3477	-186.199	-26.4666	-31.3177	-218.318	23.6674	11.2843	-219.097	4.75413	-5.84317	-203.867	-18.857	-18.4773	-201.253	59.9457	42.3544	-206.844	70.1265	75.8377	-168.02	71.2273	61.5964	
84	0.7	-137.048	49.3945	81.1232	-116.011	26.3145	68.9762	-99.6553	12.5029	51.4071	-90.1171	-4.04735	39.0205	-140.432	34.5554	-2.93731	-139.201	6.80189	-24.3449	-136.329	-18.2978	-29.2147	-165.914	27.9924	-14.8219	-165.636	3.78393	-32.1472	-159.7	-30.9606	-36.6295	-192.074	22.1041	-8.03983	-185.374	-6.36627	-25.1223	-179.263	-35.0156	-24.8541	-213.358	17.6684	8.82357	-214.62	-3.69245	-3.91844	-197.977	-25.5448	-13.5117	-202.427	58.4676	40.7345	-205.655	68.2621	77.1014	-167.497	70.0947	60.7597	
85	0.708333	-136.898	49.9098	83.0172	-117.583	27.476	68.1426	-102.887	13.2675	51.6355	-86.9543	-1.83237	39.2689	-141.04	30.0037	-4.42885	-138.225	8.07131	-20.84	-135.097	-22.6363	-26.4161	-165.696	26.1076	-13.0105	-159.864	-3.54935	-31.053	-155.845	-34.2864	-32.4734	-191.747	16.0622	-7.43518	-181.045	-10.8125	-21.9495	-176.604	-42.2865	-18.0925	-214.96	9.11172	9.19521	-208.879	-10.1634	-1.08153	-192.672	-37.9576	-6.90037	-202.723	53.8327	43.0412	-204.427	65.953	72.3571	-168.291	68.8053	62.6705	
86	0.716667	-139.263	51.9521	82.3011	-115.039	30.4379	68.982	-97.6963	17.7341	54.9677	-82.4183	1.07044	38.1523	-142.346	29.7506	-3.0168	-133.045	5.78658	-22.3578	-129.972	-26.0473	-25.2522	-169.346	22.7949	-11.3417	-159.702	-3.52042	-28.286	-152.536	-41.8184	-29.9597	-187.565	12.0885	-5.34489	-179.528	-19.1911	-18.8216	-171.731	-43.245	-13.2402	-209.102	5.81513	12.2056	-199.758	-17.7488	1.68222	-186.823	-41.3094	0.668266	-202.983	49.6551	44.7648	-205.18	64.2948	71.1174	-169.169	69.1601	59.8533	
